<svg width="50" height="50" viewBox="0 0 50 50" fill="none" xmlns="http://www.w3.org/2000/svg">
<circle cx="25" cy="25" r="24.5" transform="rotate(-180 25 25)" fill="#2C2C2C" stroke="#515151"/>
<path d="M40.7071 25.7071C41.0976 25.3166 41.0976 24.6834 40.7071 24.2929L34.3431 17.9289C33.9526 17.5384 33.3195 17.5384 32.9289 17.9289C32.5384 18.3195 32.5384 18.9526 32.9289 19.3431L38.5858 25L32.9289 30.6569C32.5384 31.0474 32.5384 31.6805 32.9289 32.0711C33.3195 32.4616 33.9526 32.4616 34.3431 32.0711L40.7071 25.7071ZM10 25L10 26L40 26V25V24L10 24L10 25Z" fill="white"/>
</svg>
