<svg width="261" height="54" viewBox="0 0 261 54" fill="none" xmlns="http://www.w3.org/2000/svg">
<path d="M2.938 51.084C2.80733 51.084 2.68133 51.0747 2.56 51.056C2.43867 51.0467 2.30333 51.0233 2.154 50.986L2.238 50.062C2.39667 50.0993 2.55067 50.118 2.7 50.118C3.12 50.118 3.456 49.9547 3.708 49.628C3.96933 49.292 4.16533 48.7787 4.296 48.088C4.42667 47.388 4.51067 46.492 4.548 45.4L4.688 41.2H11.338V51H10.316V41.816L10.582 42.096H5.346L5.598 41.802L5.472 45.372C5.43467 46.352 5.36467 47.2013 5.262 47.92C5.15933 48.6293 5.01 49.222 4.814 49.698C4.618 50.1647 4.366 50.5147 4.058 50.748C3.75 50.972 3.37667 51.084 2.938 51.084ZM14.5322 53.786C14.1869 53.786 13.8555 53.73 13.5382 53.618C13.2302 53.506 12.9642 53.338 12.7402 53.114L13.2022 52.372C13.3889 52.5493 13.5895 52.6847 13.8042 52.778C14.0282 52.8807 14.2755 52.932 14.5462 52.932C14.8729 52.932 15.1529 52.8387 15.3862 52.652C15.6289 52.4747 15.8575 52.1573 16.0722 51.7L16.5482 50.622L16.6602 50.468L19.6842 43.65H20.6642L16.9822 51.882C16.7769 52.358 16.5482 52.736 16.2962 53.016C16.0535 53.296 15.7875 53.492 15.4982 53.604C15.2089 53.7253 14.8869 53.786 14.5322 53.786ZM16.4922 51.21L13.1042 43.65H14.1402L17.1362 50.398L16.4922 51.21ZM24.2708 48.494C23.4028 48.494 22.7168 48.298 22.2128 47.906C21.7088 47.5047 21.4568 46.8887 21.4568 46.058V43.65H22.4368V46.002C22.4368 46.562 22.6188 46.982 22.9828 47.262C23.3468 47.542 23.8368 47.682 24.4528 47.682C24.8262 47.682 25.2182 47.6353 25.6288 47.542C26.0395 47.4393 26.4548 47.2947 26.8748 47.108L26.8608 47.892C26.4315 48.0787 25.9975 48.228 25.5588 48.34C25.1295 48.4427 24.7002 48.494 24.2708 48.494ZM26.7768 51V43.65H27.7708V51H26.7768ZM30.5937 51V43.65H31.5877V50.398L31.3357 50.132H35.4237L35.1997 50.398V43.65H36.1937V50.398L35.9277 50.132H40.0297L39.7637 50.398V43.65H40.7577V51H30.5937ZM48.146 51V49.376L48.104 49.11V46.394C48.104 45.7687 47.9266 45.288 47.572 44.952C47.2266 44.616 46.7086 44.448 46.018 44.448C45.542 44.448 45.0893 44.5273 44.66 44.686C44.2306 44.8447 43.8666 45.0547 43.568 45.316L43.12 44.574C43.4933 44.2567 43.9413 44.014 44.464 43.846C44.9866 43.6687 45.5373 43.58 46.116 43.58C47.068 43.58 47.8006 43.818 48.314 44.294C48.8366 44.7607 49.098 45.4747 49.098 46.436V51H48.146ZM45.612 51.07C45.0613 51.07 44.5806 50.9813 44.17 50.804C43.7686 50.6173 43.4606 50.3653 43.246 50.048C43.0313 49.7213 42.924 49.348 42.924 48.928C42.924 48.5453 43.0126 48.2 43.19 47.892C43.3766 47.5747 43.6753 47.3227 44.086 47.136C44.506 46.94 45.066 46.842 45.766 46.842H48.3V47.584H45.794C45.0846 47.584 44.59 47.71 44.31 47.962C44.0393 48.214 43.904 48.5267 43.904 48.9C43.904 49.32 44.0673 49.656 44.394 49.908C44.7206 50.16 45.178 50.286 45.766 50.286C46.326 50.286 46.8066 50.16 47.208 49.908C47.6186 49.6467 47.9173 49.2733 48.104 48.788L48.328 49.474C48.1413 49.9593 47.8146 50.3467 47.348 50.636C46.8906 50.9253 46.312 51.07 45.612 51.07ZM56.4901 51V48.354L56.6721 48.564H54.1801C53.2374 48.564 52.5001 48.3587 51.9681 47.948C51.4361 47.5373 51.1701 46.94 51.1701 46.156C51.1701 45.316 51.4547 44.6907 52.0241 44.28C52.5934 43.86 53.3541 43.65 54.3061 43.65H57.4001V51H56.4901ZM51.1141 51L53.1301 48.172H54.1661L52.1921 51H51.1141ZM56.4901 48.06V44.224L56.6721 44.518H54.3341C53.6527 44.518 53.1207 44.6487 52.7381 44.91C52.3647 45.1713 52.1781 45.596 52.1781 46.184C52.1781 47.276 52.8734 47.822 54.2641 47.822H56.6721L56.4901 48.06ZM63.8984 51V43.65H64.8924V50.398L64.6404 50.132H68.7284L68.5044 50.398V43.65H69.4984V50.398L69.2324 50.132H73.3344L73.0684 50.398V43.65H74.0624V51H63.8984ZM81.4507 51V49.376L81.4087 49.11V46.394C81.4087 45.7687 81.2313 45.288 80.8767 44.952C80.5313 44.616 80.0133 44.448 79.3227 44.448C78.8467 44.448 78.394 44.5273 77.9647 44.686C77.5353 44.8447 77.1713 45.0547 76.8727 45.316L76.4247 44.574C76.798 44.2567 77.246 44.014 77.7687 43.846C78.2913 43.6687 78.842 43.58 79.4207 43.58C80.3727 43.58 81.1053 43.818 81.6187 44.294C82.1413 44.7607 82.4027 45.4747 82.4027 46.436V51H81.4507ZM78.9167 51.07C78.366 51.07 77.8853 50.9813 77.4747 50.804C77.0733 50.6173 76.7653 50.3653 76.5507 50.048C76.336 49.7213 76.2287 49.348 76.2287 48.928C76.2287 48.5453 76.3173 48.2 76.4947 47.892C76.6813 47.5747 76.98 47.3227 77.3907 47.136C77.8107 46.94 78.3707 46.842 79.0707 46.842H81.6047V47.584H79.0987C78.3893 47.584 77.8947 47.71 77.6147 47.962C77.344 48.214 77.2087 48.5267 77.2087 48.9C77.2087 49.32 77.372 49.656 77.6987 49.908C78.0253 50.16 78.4827 50.286 79.0707 50.286C79.6307 50.286 80.1113 50.16 80.5127 49.908C80.9233 49.6467 81.222 49.2733 81.4087 48.788L81.6327 49.474C81.446 49.9593 81.1193 50.3467 80.6527 50.636C80.1953 50.9253 79.6167 51.07 78.9167 51.07ZM85.1748 53.786C84.8294 53.786 84.4981 53.73 84.1808 53.618C83.8728 53.506 83.6068 53.338 83.3828 53.114L83.8448 52.372C84.0314 52.5493 84.2321 52.6847 84.4468 52.778C84.6708 52.8807 84.9181 52.932 85.1888 52.932C85.5154 52.932 85.7954 52.8387 86.0288 52.652C86.2714 52.4747 86.5001 52.1573 86.7148 51.7L87.1908 50.622L87.3028 50.468L90.3268 43.65H91.3068L87.6248 51.882C87.4194 52.358 87.1908 52.736 86.9388 53.016C86.6961 53.296 86.4301 53.492 86.1408 53.604C85.8514 53.7253 85.5294 53.786 85.1748 53.786ZM87.1348 51.21L83.7468 43.65H84.7828L87.7788 50.398L87.1348 51.21ZM96.6494 51.07C96.0147 51.07 95.4407 50.9253 94.9274 50.636C94.4141 50.3373 94.0034 49.9127 93.6954 49.362C93.3967 48.802 93.2474 48.1207 93.2474 47.318C93.2474 46.5153 93.3967 45.8387 93.6954 45.288C93.9941 44.728 94.4001 44.3033 94.9134 44.014C95.4267 43.7247 96.0054 43.58 96.6494 43.58C97.3494 43.58 97.9747 43.7387 98.5254 44.056C99.0854 44.364 99.5241 44.8027 99.8414 45.372C100.159 45.932 100.317 46.5807 100.317 47.318C100.317 48.0647 100.159 48.718 99.8414 49.278C99.5241 49.838 99.0854 50.2767 98.5254 50.594C97.9747 50.9113 97.3494 51.07 96.6494 51.07ZM92.8554 53.716V43.65H93.8074V45.862L93.7094 47.332L93.8494 48.816V53.716H92.8554ZM96.5794 50.188C97.1021 50.188 97.5687 50.0713 97.9794 49.838C98.3901 49.5953 98.7167 49.2593 98.9594 48.83C99.2021 48.3913 99.3234 47.8873 99.3234 47.318C99.3234 46.7487 99.2021 46.2493 98.9594 45.82C98.7167 45.3907 98.3901 45.0547 97.9794 44.812C97.5687 44.5693 97.1021 44.448 96.5794 44.448C96.0567 44.448 95.5854 44.5693 95.1654 44.812C94.7547 45.0547 94.4281 45.3907 94.1854 45.82C93.9521 46.2493 93.8354 46.7487 93.8354 47.318C93.8354 47.8873 93.9521 48.3913 94.1854 48.83C94.4281 49.2593 94.7547 49.5953 95.1654 49.838C95.5854 50.0713 96.0567 50.188 96.5794 50.188ZM102.453 51V43.65H103.461L106.793 49.292H106.373L109.761 43.65H110.685V51H109.775V44.784L109.957 44.868L106.793 50.104H106.345L103.153 44.812L103.363 44.77V51H102.453ZM118.078 51V49.376L118.036 49.11V46.394C118.036 45.7687 117.858 45.288 117.504 44.952C117.158 44.616 116.64 44.448 115.95 44.448C115.474 44.448 115.021 44.5273 114.592 44.686C114.162 44.8447 113.798 45.0547 113.5 45.316L113.052 44.574C113.425 44.2567 113.873 44.014 114.396 43.846C114.918 43.6687 115.469 43.58 116.048 43.58C117 43.58 117.732 43.818 118.246 44.294C118.768 44.7607 119.03 45.4747 119.03 46.436V51H118.078ZM115.544 51.07C114.993 51.07 114.512 50.9813 114.102 50.804C113.7 50.6173 113.392 50.3653 113.178 50.048C112.963 49.7213 112.856 49.348 112.856 48.928C112.856 48.5453 112.944 48.2 113.122 47.892C113.308 47.5747 113.607 47.3227 114.018 47.136C114.438 46.94 114.998 46.842 115.698 46.842H118.232V47.584H115.726C115.016 47.584 114.522 47.71 114.242 47.962C113.971 48.214 113.836 48.5267 113.836 48.9C113.836 49.32 113.999 49.656 114.326 49.908C114.652 50.16 115.11 50.286 115.698 50.286C116.258 50.286 116.738 50.16 117.14 49.908C117.55 49.6467 117.849 49.2733 118.036 48.788L118.26 49.474C118.073 49.9593 117.746 50.3467 117.28 50.636C116.822 50.9253 116.244 51.07 115.544 51.07ZM125.34 51V43.65H130.548V44.518H126.082L126.334 44.266V51H125.34ZM134.667 51.07C133.957 51.07 133.318 50.9113 132.749 50.594C132.189 50.2673 131.745 49.824 131.419 49.264C131.092 48.6947 130.929 48.046 130.929 47.318C130.929 46.5807 131.092 45.932 131.419 45.372C131.745 44.812 132.189 44.3733 132.749 44.056C133.309 43.7387 133.948 43.58 134.667 43.58C135.395 43.58 136.039 43.7387 136.599 44.056C137.168 44.3733 137.611 44.812 137.929 45.372C138.255 45.932 138.419 46.5807 138.419 47.318C138.419 48.046 138.255 48.6947 137.929 49.264C137.611 49.824 137.168 50.2673 136.599 50.594C136.029 50.9113 135.385 51.07 134.667 51.07ZM134.667 50.188C135.199 50.188 135.67 50.0713 136.081 49.838C136.491 49.5953 136.813 49.2593 137.047 48.83C137.289 48.3913 137.411 47.8873 137.411 47.318C137.411 46.7393 137.289 46.2353 137.047 45.806C136.813 45.3767 136.491 45.0453 136.081 44.812C135.67 44.5693 135.203 44.448 134.681 44.448C134.158 44.448 133.691 44.5693 133.281 44.812C132.87 45.0453 132.543 45.3767 132.301 45.806C132.058 46.2353 131.937 46.7393 131.937 47.318C131.937 47.8873 132.058 48.3913 132.301 48.83C132.543 49.2593 132.87 49.5953 133.281 49.838C133.691 50.0713 134.153 50.188 134.667 50.188ZM144.337 51.07C143.702 51.07 143.128 50.9253 142.615 50.636C142.102 50.3373 141.691 49.9127 141.383 49.362C141.084 48.802 140.935 48.1207 140.935 47.318C140.935 46.5153 141.084 45.8387 141.383 45.288C141.682 44.728 142.088 44.3033 142.601 44.014C143.114 43.7247 143.693 43.58 144.337 43.58C145.037 43.58 145.662 43.7387 146.213 44.056C146.773 44.364 147.212 44.8027 147.529 45.372C147.846 45.932 148.005 46.5807 148.005 47.318C148.005 48.0647 147.846 48.718 147.529 49.278C147.212 49.838 146.773 50.2767 146.213 50.594C145.662 50.9113 145.037 51.07 144.337 51.07ZM140.543 53.716V43.65H141.495V45.862L141.397 47.332L141.537 48.816V53.716H140.543ZM144.267 50.188C144.79 50.188 145.256 50.0713 145.667 49.838C146.078 49.5953 146.404 49.2593 146.647 48.83C146.89 48.3913 147.011 47.8873 147.011 47.318C147.011 46.7487 146.89 46.2493 146.647 45.82C146.404 45.3907 146.078 45.0547 145.667 44.812C145.256 44.5693 144.79 44.448 144.267 44.448C143.744 44.448 143.273 44.5693 142.853 44.812C142.442 45.0547 142.116 45.3907 141.873 45.82C141.64 46.2493 141.523 46.7487 141.523 47.318C141.523 47.8873 141.64 48.3913 141.873 48.83C142.116 49.2593 142.442 49.5953 142.853 49.838C143.273 50.0713 143.744 50.188 144.267 50.188ZM153.165 51.07C152.455 51.07 151.816 50.9113 151.247 50.594C150.687 50.2673 150.243 49.824 149.917 49.264C149.59 48.6947 149.427 48.046 149.427 47.318C149.427 46.5807 149.59 45.932 149.917 45.372C150.243 44.812 150.687 44.3733 151.247 44.056C151.807 43.7387 152.446 43.58 153.165 43.58C153.893 43.58 154.537 43.7387 155.097 44.056C155.666 44.3733 156.109 44.812 156.427 45.372C156.753 45.932 156.917 46.5807 156.917 47.318C156.917 48.046 156.753 48.6947 156.427 49.264C156.109 49.824 155.666 50.2673 155.097 50.594C154.527 50.9113 153.883 51.07 153.165 51.07ZM153.165 50.188C153.697 50.188 154.168 50.0713 154.579 49.838C154.989 49.5953 155.311 49.2593 155.545 48.83C155.787 48.3913 155.909 47.8873 155.909 47.318C155.909 46.7393 155.787 46.2353 155.545 45.806C155.311 45.3767 154.989 45.0453 154.579 44.812C154.168 44.5693 153.701 44.448 153.179 44.448C152.656 44.448 152.189 44.5693 151.779 44.812C151.368 45.0453 151.041 45.3767 150.799 45.806C150.556 46.2353 150.435 46.7393 150.435 47.318C150.435 47.8873 150.556 48.3913 150.799 48.83C151.041 49.2593 151.368 49.5953 151.779 49.838C152.189 50.0713 152.651 50.188 153.165 50.188ZM159.014 50.314L158.02 50.132C158.309 50.1413 158.547 50.0387 158.734 49.824C158.921 49.6 159.065 49.2967 159.168 48.914C159.271 48.5313 159.345 48.0973 159.392 47.612C159.439 47.1173 159.476 46.6133 159.504 46.1L159.602 43.65H165.034V50.524H164.04V44.518H160.498L160.414 46.156C160.395 46.6507 160.363 47.136 160.316 47.612C160.279 48.088 160.209 48.5267 160.106 48.928C160.013 49.32 159.877 49.642 159.7 49.894C159.523 50.1367 159.294 50.2767 159.014 50.314ZM157.712 52.778V50.132H166.182V52.778H165.244V51H158.65V52.778H157.712ZM172.683 51V49.376L172.641 49.11V46.394C172.641 45.7687 172.464 45.288 172.109 44.952C171.764 44.616 171.246 44.448 170.555 44.448C170.079 44.448 169.626 44.5273 169.197 44.686C168.768 44.8447 168.404 45.0547 168.105 45.316L167.657 44.574C168.03 44.2567 168.478 44.014 169.001 43.846C169.524 43.6687 170.074 43.58 170.653 43.58C171.605 43.58 172.338 43.818 172.851 44.294C173.374 44.7607 173.635 45.4747 173.635 46.436V51H172.683ZM170.149 51.07C169.598 51.07 169.118 50.9813 168.707 50.804C168.306 50.6173 167.998 50.3653 167.783 50.048C167.568 49.7213 167.461 49.348 167.461 48.928C167.461 48.5453 167.55 48.2 167.727 47.892C167.914 47.5747 168.212 47.3227 168.623 47.136C169.043 46.94 169.603 46.842 170.303 46.842H172.837V47.584H170.331C169.622 47.584 169.127 47.71 168.847 47.962C168.576 48.214 168.441 48.5267 168.441 48.9C168.441 49.32 168.604 49.656 168.931 49.908C169.258 50.16 169.715 50.286 170.303 50.286C170.863 50.286 171.344 50.16 171.745 49.908C172.156 49.6467 172.454 49.2733 172.641 48.788L172.865 49.474C172.678 49.9593 172.352 50.3467 171.885 50.636C171.428 50.9253 170.849 51.07 170.149 51.07Z" fill="white"/>
<path d="M2.232 35V9.8H10.584V30.248L8.748 28.412H17.496L15.66 30.248V9.8H24.012V30.248L22.14 28.412H30.924L29.052 30.248V9.8H37.404V35H2.232ZM39.7291 35L50.7451 9.8H59.0971L70.1131 35H61.3291L53.1931 13.832H56.5051L48.3691 35H39.7291ZM46.2811 30.608L48.4411 24.488H60.0331L62.1931 30.608H46.2811ZM71.0336 34.532L73.0136 28.412C74.5016 28.796 75.6656 28.928 76.5056 28.808C77.3456 28.664 78.0896 28.148 78.7376 27.26L79.9616 25.532L80.6816 24.74L87.9896 9.8H96.1976L86.0816 28.772C84.9776 30.836 83.6456 32.444 82.0856 33.596C80.5496 34.724 78.8456 35.372 76.9736 35.54C75.1016 35.708 73.1216 35.372 71.0336 34.532ZM80.5736 31.4L68.8376 9.8H77.8016L85.1816 25.532L80.5736 31.4ZM97.9625 35V9.8H110.094C112.446 9.8 114.474 10.184 116.178 10.952C117.906 11.72 119.238 12.824 120.174 14.264C121.11 15.68 121.578 17.36 121.578 19.304C121.578 21.248 121.11 22.928 120.174 24.344C119.238 25.76 117.906 26.864 116.178 27.656C114.474 28.424 112.446 28.808 110.094 28.808H102.678L106.458 25.172V35H97.9625ZM106.458 26.108L102.678 22.256H109.554C110.73 22.256 111.594 21.992 112.146 21.464C112.722 20.936 113.01 20.216 113.01 19.304C113.01 18.392 112.722 17.672 112.146 17.144C111.594 16.616 110.73 16.352 109.554 16.352H102.678L106.458 12.5V26.108Z" fill="white"/>
<path d="M124.154 35V9.8H131.138L141.218 26.252H137.546L147.338 9.8H154.322L154.394 35H146.654L146.582 21.464H147.806L141.11 32.732H137.366L130.382 21.464H131.894V35H124.154ZM156.694 35L167.71 9.8H176.062L187.078 35H178.294L170.158 13.832H173.47L165.334 35H156.694ZM163.246 30.608L165.406 24.488H176.998L179.158 30.608H163.246Z" fill="#F9D236"/>
<path d="M187.928 35L191.816 15.632H197.396L195.884 23.192H204.308L205.82 15.632H211.4L207.548 35H201.932L203.372 27.764H194.984L193.544 35H187.928ZM212.924 35L216.812 15.632H222.428L220.016 27.404L231.716 15.632H237.008L233.156 35H227.504L229.952 23.192L218.252 35H212.924ZM250.83 35L252.09 28.484L252.702 29.564H247.374C244.878 29.564 242.946 29.012 241.578 27.908C240.234 26.78 239.562 25.316 239.562 23.516C239.562 21.02 240.51 19.088 242.406 17.72C244.302 16.328 246.894 15.632 250.182 15.632H259.65L255.798 35H250.83ZM237.006 35L243.666 27.62H249.354L243.234 35H237.006ZM252.414 26.864L254.07 18.656L254.538 20.168H249.678C248.286 20.168 247.218 20.444 246.474 20.996C245.73 21.524 245.358 22.328 245.358 23.408C245.358 24.92 246.366 25.676 248.382 25.676H253.386L252.414 26.864Z" fill="#9DD32E"/>
</svg>
